The Unborn Hindi BRRIP by RoYStaR

General
Unique ID                        : 114829051752440462846459619952357396483 (0x5663455B60AB049EDFF93C374129D003)
Complete name                    : D:\TOORENT FOR UPLOAD\The Unborn Hindi BRRIP by RoYStaR\The Unborn Hindi BRRIP by RoYStaR.mkv
Format                           : Matroska
File size                        : 408 MiB
Duration                         : 1h 28mn
Overall bit rate                 : 643 Kbps

Video
ID                               : 1
Format                           : AVC
Format/Info                      : Advanced Video Codec
Codec ID                         : V_MPEG4/ISO/AVC
Duration                         : 1h 28mn
Bit rate                         : 502 Kbps
Width                            : 1 280 pixels
Height                           : 528 pixels
Display aspect ratio             : 2.40:1
Frame rate                       : 23.976 fps
Bits/(Pixel*Frame)               : 0.031
Stream size                      : 319 MiB (78%)
Language                         : English

Audio
ID                               : 2
Format                           : MPEG Audio
Format version                   : Version 1
Format profile                   : Layer 3
Mode                             : Joint stereo
Mode extension                   : MS Stereo
Codec ID                         : A_MPEG/L3
Codec ID/Hint                    : MP3
Duration                         : 1h 27mn
Bit rate mode                    : Constant
Bit rate                         : 128 Kbps
Channel(s)                       : 2 channels
Sampling rate                    : 44.1 KHz
Compression mode                 : Lossy
Delay relative to video          : 2s 0ms
Stream size                      : 80.4 MiB (20%)
Language                         : Hindi

This is quality upload. . . . . . . 

Because i am upload only quality torrent....




ENJOY................ *RoY StaR*

Screenshot:-
 
http://img221.imageshack.us/img221/4776/vlcsnap2011092018h37m41j.jpg
 
http://img217.imageshack.us/img217/821/vlcsnap2011092018h37m54.jpg
 
http://img839.imageshack.us/img839/6425/vlcsnap2011092018h37m56.jpg
 
http://img27.imageshack.us/img27/6156/vlcsnap2011092018h38m01.jpg
 
http://img829.imageshack.us/img829/5356/vlcsnap2011092018h38m29.jpg


